#Comment line ignore any data following # character 
#Hierarchical Translation and Rotation (.htr) file 
[Header]	
#Header keywords are followed by a single value 
FileType HTR		#Single word string
DataType HTRS		#Translation followed by rotation and scale data
FileVersion 1		#integer
NumSegments 64		#integer
NumFrames 3		#integer
DataFrameRate 30		#integer, data frame rate in this file
EulerRotationOrder ZYX
CalibrationUnits mm
RotationUnits Degrees
GlobalAxisofGravity Y
BoneLengthAxis Y
ScaleFactor 1.00
[SegmentNames&Hierarchy]
#CHILD	PARENT
Pinger_Root GLOBAL
Pelvis Pinger_Root
L_Hip Pelvis
R_Hip Pelvis
Rear_Leg01 Pelvis
Spine1 Pelvis
L_Leg01 L_Hip
L_Leg02 L_Leg01
L_Leg03 L_Leg02
L_Foot L_Leg03
L_Toe1_01 L_Foot
L_Toe2_01 L_Foot
L_Toe3_01 L_Foot
planeAlignerLeft L_Foot
L_Toe1_02 L_Toe1_01
L_Toe1_03 L_Toe1_02
L_Toe2_02 L_Toe2_01
L_Toe2_03 L_Toe2_02
L_Toe3_02 L_Toe3_01
L_Toe3_03 L_Toe3_02
planeLockWeightLeft planeAlignerLeft
R_Leg01 R_Hip
R_Leg02 R_Leg01
R_Leg03 R_Leg02
R_Foot R_Leg03
planeAlignerRight R_Foot
R_Toe1_01 R_Foot
R_Toe2_01 R_Foot
R_Toe3_01 R_Foot
planeLockWeightRight planeAlignerRight
R_Toe1_02 R_Toe1_01
R_Toe1_03 R_Toe1_02
R_Toe2_02 R_Toe2_01
R_Toe2_03 R_Toe2_02
R_Toe3_02 R_Toe3_01
R_Toe3_03 R_Toe3_02
Rear_Leg02 Rear_Leg01
Rear_Leg03 Rear_Leg02
Rear_Leg04 Rear_Leg03
Rear_Foot Rear_Leg04
planeAlignerCenter Rear_Foot
Rear_Toe1_01 Rear_Foot
Rear_Toe2_01 Rear_Foot
Rear_Toe3_01 Rear_Foot
planeLockWeightCenter planeAlignerCenter
Rear_Toe1_02 Rear_Toe1_01
Rear_Toe1_03 Rear_Toe1_02
Rear_Toe2_02 Rear_Toe2_01
Rear_Toe2_03 Rear_Toe2_02
Rear_Toe3_02 Rear_Toe3_01
Rear_Toe3_03 Rear_Toe3_02
Back_Bone Spine1
Head Spine1
Motor_Bone Back_Bone
Ping_Mechanism Back_Bone
BN_LookIK Head
bottomMouth Head
L_Mouth01 Head
L_mouthFront Head
mouthGun Head
R_Mouth01 Head
R_mouthFront Head
TopMouth Head
weapon_bone Head
[BasePosition]
#SegmentName Tx, Ty, Tz, Rx, Ry, Rz, BoneLength
Pinger_Root 0.000000 0.000000 0.000000 -90.000000 0.000000 0.000000 10.000000 
Pelvis 0.000000 0.000000 0.000000 0.000000 0.000000 0.000000 10.000000 
L_Hip 0.000000 0.000000 0.000000 0.000000 0.000000 0.000000 10.000000 
R_Hip 0.000000 0.000000 0.000000 0.000000 0.000000 0.000000 10.000000 
Rear_Leg01 0.000000 0.000000 0.000000 0.000000 0.000000 0.000000 10.000000 
Spine1 0.000000 0.000000 0.000000 0.000000 0.000000 0.000000 10.000000 
L_Leg01 0.000000 0.000000 0.000000 0.000000 0.000000 0.000000 10.000000 
L_Leg02 0.000000 0.000000 0.000000 0.000000 0.000000 0.000000 10.000000 
L_Leg03 0.000000 0.000000 0.000000 0.000000 0.000000 0.000000 10.000000 
L_Foot 0.000000 0.000000 0.000000 0.000000 0.000000 0.000000 10.000000 
L_Toe1_01 0.000000 0.000000 0.000000 0.000000 0.000000 0.000000 10.000000 
L_Toe2_01 0.000000 0.000000 0.000000 0.000000 0.000000 0.000000 10.000000 
L_Toe3_01 0.000000 0.000000 0.000000 0.000000 0.000000 0.000000 10.000000 
planeAlignerLeft 0.000000 0.000000 0.000000 0.000000 0.000000 0.000000 10.000000 
L_Toe1_02 0.000000 0.000000 0.000000 0.000000 0.000000 0.000000 10.000000 
L_Toe1_03 0.000000 0.000000 0.000000 0.000000 0.000000 0.000000 10.000000 
L_Toe2_02 0.000000 0.000000 0.000000 0.000000 0.000000 0.000000 10.000000 
L_Toe2_03 0.000000 0.000000 0.000000 0.000000 0.000000 0.000000 10.000000 
L_Toe3_02 0.000000 0.000000 0.000000 0.000000 0.000000 0.000000 10.000000 
L_Toe3_03 0.000000 0.000000 0.000000 0.000000 0.000000 0.000000 10.000000 
planeLockWeightLeft 0.000000 0.000000 0.000000 0.000000 0.000000 0.000000 10.000000 
R_Leg01 0.000000 0.000000 0.000000 0.000000 0.000000 0.000000 10.000000 
R_Leg02 0.000000 0.000000 0.000000 0.000000 0.000000 0.000000 10.000000 
R_Leg03 0.000000 0.000000 0.000000 0.000000 0.000000 0.000000 10.000000 
R_Foot 0.000000 0.000000 0.000000 0.000000 0.000000 0.000000 10.000000 
planeAlignerRight 0.000000 0.000000 0.000000 0.000000 0.000000 0.000000 10.000000 
R_Toe1_01 0.000000 0.000000 0.000000 0.000000 0.000000 0.000000 10.000000 
R_Toe2_01 0.000000 0.000000 0.000000 0.000000 0.000000 0.000000 10.000000 
R_Toe3_01 0.000000 0.000000 0.000000 0.000000 0.000000 0.000000 10.000000 
planeLockWeightRight 0.000000 0.000000 0.000000 0.000000 0.000000 0.000000 10.000000 
R_Toe1_02 0.000000 0.000000 0.000000 0.000000 0.000000 0.000000 10.000000 
R_Toe1_03 0.000000 0.000000 0.000000 0.000000 0.000000 0.000000 10.000000 
R_Toe2_02 0.000000 0.000000 0.000000 0.000000 0.000000 0.000000 10.000000 
R_Toe2_03 0.000000 0.000000 0.000000 0.000000 0.000000 0.000000 10.000000 
R_Toe3_02 0.000000 0.000000 0.000000 0.000000 0.000000 0.000000 10.000000 
R_Toe3_03 0.000000 0.000000 0.000000 0.000000 0.000000 0.000000 10.000000 
Rear_Leg02 0.000000 0.000000 0.000000 0.000000 0.000000 0.000000 10.000000 
Rear_Leg03 0.000000 0.000000 0.000000 0.000000 0.000000 0.000000 10.000000 
Rear_Leg04 0.000000 0.000000 0.000000 0.000000 0.000000 0.000000 10.000000 
Rear_Foot 0.000000 0.000000 0.000000 0.000000 0.000000 0.000000 10.000000 
planeAlignerCenter 0.000000 0.000000 0.000000 0.000000 0.000000 0.000000 10.000000 
Rear_Toe1_01 0.000000 0.000000 0.000000 0.000000 0.000000 0.000000 10.000000 
Rear_Toe2_01 0.000000 0.000000 0.000000 0.000000 0.000000 0.000000 10.000000 
Rear_Toe3_01 0.000000 0.000000 0.000000 0.000000 0.000000 0.000000 10.000000 
planeLockWeightCenter 0.000000 0.000000 0.000000 0.000000 0.000000 0.000000 10.000000 
Rear_Toe1_02 0.000000 0.000000 0.000000 0.000000 0.000000 0.000000 10.000000 
Rear_Toe1_03 0.000000 0.000000 0.000000 0.000000 0.000000 0.000000 10.000000 
Rear_Toe2_02 0.000000 0.000000 0.000000 0.000000 0.000000 0.000000 10.000000 
Rear_Toe2_03 0.000000 0.000000 0.000000 0.000000 0.000000 0.000000 10.000000 
Rear_Toe3_02 0.000000 0.000000 0.000000 0.000000 0.000000 0.000000 10.000000 
Rear_Toe3_03 0.000000 0.000000 0.000000 0.000000 0.000000 0.000000 10.000000 
Back_Bone 0.000000 0.000000 0.000000 0.000000 0.000000 0.000000 10.000000 
Head 0.000000 0.000000 0.000000 0.000000 0.000000 0.000000 10.000000 
Motor_Bone 0.000000 0.000000 0.000000 0.000000 0.000000 0.000000 10.000000 
Ping_Mechanism 0.000000 0.000000 0.000000 0.000000 0.000000 0.000000 10.000000 
BN_LookIK 0.000000 0.000000 0.000000 0.000000 0.000000 0.000000 10.000000 
bottomMouth 0.000000 0.000000 0.000000 0.000000 0.000000 0.000000 10.000000 
L_Mouth01 0.000000 0.000000 0.000000 0.000000 0.000000 0.000000 10.000000 
L_mouthFront 0.000000 0.000000 0.000000 0.000000 0.000000 0.000000 10.000000 
mouthGun 0.000000 0.000000 0.000000 0.000000 0.000000 0.000000 10.000000 
R_Mouth01 0.000000 0.000000 0.000000 0.000000 0.000000 0.000000 10.000000 
R_mouthFront 0.000000 0.000000 0.000000 0.000000 0.000000 0.000000 10.000000 
TopMouth 0.000000 0.000000 0.000000 0.000000 0.000000 0.000000 10.000000 
weapon_bone 0.000000 0.000000 0.000000 0.000000 0.000000 0.000000 10.000000 
#Beginning of Data. Separated by tabs
#Fr	Tx	Ty	Tz	Rx	Ry	Rz	SF
[Pinger_Root]
95 0.000000 0.000000 0.000000 -0.000075 -0.000000 -0.000020 0.000000
96 0.000000 0.000000 0.000000 -0.000075 -0.000000 -0.000020 0.000000
97 0.000000 0.000000 0.000000 -0.000075 -0.000000 -0.000020 0.000000
[Pelvis]
95 50.100044 965.683777 4187.819336 -101.392494 -86.878395 93.883621 4298.009766
96 55.499725 955.217285 4333.460449 -105.675987 -88.541962 98.167076 4437.836914
97 60.650360 944.204895 4465.343262 0.000000 -89.692253 -7.508709 4564.481934
[L_Hip]
95 5.766392 125.831482 872.656799 169.660522 -57.425758 105.759689 881.701050
96 5.766392 125.831482 872.656799 166.179062 -54.370285 110.882133 881.701050
97 5.766392 125.831482 872.656799 163.706726 -51.529270 114.971100 881.701050
[R_Hip]
95 5.765438 125.836372 -872.654907 30.340097 68.488098 112.430389 881.699829
96 5.765438 125.836372 -872.654907 34.059223 63.548313 117.241455 881.699829
97 5.765438 125.836372 -872.654907 36.106342 59.062954 120.496628 881.699829
[Rear_Leg01]
95 -192.298416 -925.602966 -0.001907 171.723785 5.531494 -133.435394 945.367432
96 -192.298416 -925.602966 -0.001907 171.162827 4.881968 -138.507828 945.367432
97 -192.298416 -925.602966 -0.001907 170.740982 4.229576 -143.176514 945.367432
[Spine1]
95 290.604584 5.007505 0.000477 6.958622 -1.745368 28.762592 290.647736
96 290.604584 5.007505 0.000477 6.872981 -1.838869 29.580235 290.647736
97 290.604584 5.007505 0.000477 6.786010 -1.931131 30.397997 290.647736
[L_Leg01]
95 761.932007 -0.002384 -0.069261 38.018417 -22.592367 -30.464430 761.932068
96 761.932007 -0.002384 -0.069261 35.803558 -19.025818 -29.685993 761.932068
97 761.932007 -0.002384 -0.069261 33.750492 -15.697989 -29.503616 761.932068
[L_Leg02]
95 1441.140503 -0.000954 -0.000715 5.862965 -0.017469 -128.172485 1441.140503
96 1441.140503 -0.000954 -0.000715 4.420166 -0.211888 -123.018700 1441.140503
97 1441.140503 -0.000954 -0.000715 2.965737 -0.275861 -117.861626 1441.140503
[L_Leg03]
95 1686.963989 -0.000715 -0.000954 -0.047919 0.022897 123.386948 1686.963989
96 1686.963989 -0.000715 -0.000954 -0.036393 0.017151 120.431808 1686.963989
97 1686.963989 -0.000715 -0.000954 -0.027422 0.010413 117.891060 1686.963989
[L_Foot]
95 3041.570068 -30.715107 11.297464 2.672843 19.482649 54.414841 3041.746094
96 3041.570068 -30.715107 11.297464 2.687711 18.003208 54.148949 3041.746094
97 3041.570068 -30.715107 11.297464 2.574025 16.771490 53.587440 3041.746094
[L_Toe1_01]
95 -188.216690 -224.732346 -21.137953 93.467628 -6.688380 -173.007751 293.899567
96 -188.216690 -224.732346 -21.137953 93.510902 -6.749122 -172.626907 293.899567
97 -188.216690 -224.732346 -21.137953 93.553741 -6.810144 -172.246048 293.899567
[L_Toe2_01]
95 200.746536 -219.926590 148.838394 -90.173721 -26.206938 -51.708828 332.896027
96 200.746536 -219.926590 148.838394 -90.082870 -26.210157 -52.078987 332.896027
97 200.746536 -219.926590 148.838394 -89.991997 -26.212851 -52.449158 332.896027
[L_Toe3_01]
95 188.832520 -219.859131 -191.078659 -100.106018 14.687907 -66.624954 347.140900
96 188.832520 -219.859131 -191.078659 -100.033844 14.444378 -67.005127 347.140900
97 188.832520 -219.859131 -191.078659 -99.960068 14.201321 -67.385208 347.140900
[planeAlignerLeft]
95 34.452400 -579.707764 94.072792 169.619324 -76.630081 89.631859 588.300720
96 33.760620 -584.577332 96.100746 169.574417 -76.585938 89.680580 593.385010
97 33.068844 -589.446838 98.128693 169.529800 -76.541695 89.728935 598.473389
[L_Toe1_02]
95 413.761139 0.000477 0.000000 0.001384 -25.952108 0.001384 413.761139
96 413.761139 0.000477 0.000000 0.001384 -25.953527 0.001384 413.761139
97 413.761139 0.000477 0.000000 0.001384 -25.954943 0.001384 413.761139
[L_Toe1_03]
95 464.317322 0.000358 -0.000089 0.003849 54.494263 0.003849 464.317322
96 464.317322 0.000358 -0.000089 0.003806 54.075039 0.003806 464.317322
97 464.317322 0.000358 -0.000089 0.003763 53.655792 0.003763 464.317322
[L_Toe2_02]
95 342.235809 -0.000477 0.000238 0.001187 -72.936913 0.001187 342.235809
96 342.235809 -0.000477 0.000238 0.001187 -72.764900 0.001187 342.235809
97 342.235809 -0.000477 0.000238 0.001187 -72.592880 0.001187 342.235809
[L_Toe2_03]
95 420.210846 -0.000715 0.000000 0.009744 86.767960 0.011493 420.210846
96 420.210846 -0.000715 0.000000 0.017650 86.285744 0.018816 420.210846
97 420.210846 -0.000715 0.000000 0.023807 85.803856 0.024390 420.210846
[L_Toe3_02]
95 329.270111 0.000954 0.000000 0.001177 -80.834961 0.001177 329.270111
96 329.270111 0.000954 0.000000 0.001177 -80.729050 0.001177 329.270111
97 329.270111 0.000954 0.000000 0.001178 -80.623215 0.001178 329.270111
[L_Toe3_03]
95 439.137451 -0.001907 0.000954 -179.996628 77.126167 -179.993118 439.137451
96 439.137451 -0.001907 0.000954 -179.996429 77.636398 -179.992905 439.137451
97 439.137451 -0.001907 0.000954 -179.996201 78.146667 -179.992676 439.137451
[planeLockWeightLeft]
95 999.998901 0.098171 0.075975 -0.011826 -0.004376 0.005620 999.998962
96 999.998901 0.098173 0.075974 -0.011826 -0.004376 0.005620 999.998962
97 999.998962 0.098175 0.075973 -0.011826 -0.004376 0.005620 999.999023
[R_Leg01]
95 761.455627 -0.001907 -0.000358 106.500671 -5.973485 54.524204 761.455688
96 761.455627 -0.001907 -0.000358 109.178085 -2.023769 51.896233 761.455688
97 761.455627 -0.001907 -0.000358 111.729958 1.716091 49.918552 761.455688
[R_Leg02]
95 1441.140625 0.000000 -0.000238 -6.679410 -1.280125 -109.335983 1441.140625
96 1441.140625 0.000000 -0.000238 -5.157300 -0.682323 -105.242630 1441.140625
97 1441.140625 0.000000 -0.000238 -3.687895 -0.273886 -100.911903 1441.140625
[R_Leg03]
95 1686.963989 0.000954 0.001431 0.089089 -0.050279 134.466934 1686.963989
96 1686.963989 0.000954 0.001431 0.078674 -0.042508 131.775543 1686.963989
97 1686.963989 0.000954 0.001431 0.067913 -0.035238 129.085648 1686.963989
[R_Foot]
95 3041.560059 -30.531288 -11.204481 -3.626580 -26.999744 51.052399 3041.734131
96 3041.560059 -30.531288 -11.204481 -3.184283 -26.532681 50.813740 3041.734131
97 3041.560059 -30.531288 -11.204481 -2.745934 -26.063992 50.580017 3041.734131
[planeAlignerRight]
95 -126.321373 -563.242493 -305.796875 -36.932995 -71.762093 -64.055290 653.231140
96 -126.796234 -567.598389 -308.239288 -36.864323 -71.680710 -64.111649 658.222351
97 -127.439323 -571.538086 -309.914520 -36.796146 -71.599251 -64.167412 662.528137
[R_Toe1_01]
95 -188.383347 -224.864899 21.052242 77.241791 -0.688663 -173.720276 294.101532
96 -188.383347 -224.864899 21.052242 77.128830 -0.588498 -173.341782 294.101532
97 -188.383347 -224.864899 21.052242 77.016556 -0.487591 -172.963501 294.101532
[R_Toe2_01]
95 200.637817 -220.002121 -148.787384 -91.869598 32.676350 -58.477592 332.857574
96 200.637817 -220.002121 -148.787384 -91.899612 32.691326 -58.775112 332.857574
97 200.637817 -220.002121 -148.787384 -91.929733 32.706184 -59.072689 332.857574
[R_Toe3_01]
95 188.606735 -220.092957 191.126343 -72.978226 -9.231737 -72.868095 347.192566
96 188.606735 -220.092957 191.126343 -73.051704 -9.012054 -73.193863 347.192566
97 188.606735 -220.092957 191.126343 -73.126396 -8.792792 -73.519730 347.192566
[planeLockWeightRight]
95 999.999329 0.000000 0.075998 -0.011823 -0.004379 -0.000027 999.999329
96 999.999329 0.000000 0.075998 -0.011823 -0.004379 -0.000027 999.999329
97 999.999329 0.000000 0.075997 -0.011823 -0.004379 -0.000027 999.999329
[R_Toe1_02]
95 413.762085 0.000477 -0.000119 0.001395 -24.507090 0.001395 413.762085
96 413.762085 0.000477 -0.000119 0.001395 -24.544769 0.001395 413.762085
97 413.762085 0.000477 -0.000119 0.001395 -24.582451 0.001395 413.762085
[R_Toe1_03]
95 464.317810 0.000000 0.001088 0.006881 70.360031 0.006881 464.317810
96 464.317810 0.000000 0.001088 0.006770 70.033096 0.006770 464.317810
97 464.317810 0.000000 0.001088 0.006662 69.706131 0.006662 464.317810
[R_Toe2_02]
95 342.234741 -0.000954 0.000238 0.001195 -68.120262 0.001195 342.234741
96 342.234741 -0.000954 0.000238 0.001196 -67.836174 0.001196 342.234741
97 342.234741 -0.000954 0.000238 0.001197 -67.552071 0.001197 342.234741
[R_Toe2_03]
95 420.210846 0.000715 -0.000268 0.009234 75.394669 0.009234 420.210846
96 420.210846 0.000715 -0.000268 0.008846 74.750862 0.008846 420.210846
97 420.210846 0.000715 -0.000268 0.008489 74.107079 0.008489 420.210846
[R_Toe3_02]
95 329.270355 -0.000477 -0.000954 0.001183 -75.315758 0.001183 329.270355
96 329.270355 -0.000477 -0.000954 0.001184 -75.065231 0.001184 329.270355
97 329.270355 -0.000477 -0.000954 0.001184 -74.814735 0.001184 329.270355
[R_Toe3_03]
95 439.137939 0.000238 0.001431 -0.015607 85.245560 -0.012107 439.137939
96 439.137939 0.000238 0.001431 -0.013836 84.548241 -0.010335 439.137939
97 439.137939 0.000238 0.001431 -0.012466 83.850815 -0.008965 439.137939
[Rear_Leg02]
95 1162.777710 -0.029802 0.005960 2.186525 -2.769414 -101.572815 1162.777710
96 1162.777710 -0.029802 0.005960 1.686131 -2.808902 -105.803596 1162.777710
97 1162.777710 -0.029802 0.005960 1.214181 -2.862193 -109.165398 1162.777710
[Rear_Leg03]
95 607.192505 -0.013351 -0.073195 0.010521 -0.005045 67.593903 607.192505
96 607.192505 -0.013351 -0.073195 0.010579 -0.004924 66.273842 607.192505
97 607.192505 -0.013351 -0.073195 0.010635 -0.004802 64.953773 607.192505
[Rear_Leg04]
95 995.874512 -0.020504 -0.011921 -0.039819 -0.019582 64.989021 995.874573
96 995.874512 -0.020504 -0.011921 -0.043603 -0.017910 62.403923 995.874573
97 995.874512 -0.020504 -0.011921 -0.041927 -0.016854 59.537804 995.874573
[Rear_Foot]
95 3096.176270 -0.067472 -0.041425 -133.758698 85.769920 52.682308 3096.176270
96 3096.176270 -0.067472 -0.041425 -135.788544 85.783363 51.972004 3096.176270
97 3096.176270 -0.067472 -0.041425 -137.826660 85.794762 51.253445 3096.176270
[planeAlignerCenter]
95 1.039829 -12.854703 -717.842407 12.240772 -0.001473 179.998184 717.958191
96 1.039886 -13.056323 -724.563782 12.240772 -0.001473 179.998184 724.682129
97 1.039600 -13.603071 -731.396667 12.240772 -0.001473 179.998184 731.523926
[Rear_Toe1_01]
95 0.653352 83.966492 -371.173737 0.271209 37.592770 90.398804 380.553192
96 0.653352 83.966492 -371.173737 0.272794 38.093910 90.399834 380.553192
97 0.653352 83.966492 -371.173737 0.274397 38.595058 90.400871 380.553192
[Rear_Toe2_01]
95 178.200760 -294.826019 -362.060547 -6.408303 32.516193 -62.579903 499.765686
96 178.200760 -294.826019 -362.060547 -6.333558 32.962772 -62.578541 499.765686
97 178.200760 -294.826019 -362.060547 -6.258414 33.409355 -62.576458 499.765686
[Rear_Toe3_01]
95 -153.359680 -308.780914 -362.060852 2.682881 32.084568 -115.685867 499.952881
96 -153.359680 -308.780914 -362.060852 2.634887 32.516941 -115.686211 499.952881
97 -153.359680 -308.780914 -362.060852 2.586649 32.949314 -115.686996 499.952881
[planeLockWeightCenter]
95 1000.000122 0.000096 0.076249 -0.011814 -0.004373 -0.000015 1000.000122
96 1000.000122 0.000094 0.076249 -0.011814 -0.004373 -0.000015 1000.000122
97 1000.000122 0.000091 0.076249 -0.011814 -0.004373 -0.000015 1000.000122
[Rear_Toe1_02]
95 379.707825 0.194073 0.000477 0.000294 -32.897133 0.004866 379.707855
96 379.707825 0.194073 0.000477 0.000090 -32.814610 0.005570 379.707855
97 379.707825 0.194073 0.000477 -0.000112 -32.732082 0.006272 379.707855
[Rear_Toe1_03]
95 500.129700 0.165701 0.000119 -0.004086 60.791615 -0.000473 500.129761
96 500.129700 0.165701 0.000119 -0.004022 59.871323 -0.000401 500.129761
97 500.129700 0.165701 0.000119 -0.003962 58.950912 -0.000333 500.129761
[Rear_Toe2_02]
95 340.494507 0.000238 -0.000954 0.001177 -81.650917 0.001177 340.494507
96 340.494507 0.000238 -0.000954 0.001177 -81.509880 0.001177 340.494507
97 340.494507 0.000238 -0.000954 0.001177 -81.368896 0.001177 340.494507
[Rear_Toe2_03]
95 433.103577 0.000000 0.000238 179.879074 88.887589 179.879074 433.103546
96 433.103577 0.000000 0.000238 179.826736 89.224182 179.826736 433.103546
97 433.103577 0.000000 0.000238 0.000000 89.558098 -0.000009 433.103546
[Rear_Toe3_02]
95 340.494141 -0.000358 -0.000477 0.001178 -80.259567 0.001178 340.494171
96 340.494141 -0.000358 -0.000477 0.001178 -80.116684 0.001178 340.494171
97 340.494141 -0.000358 -0.000477 0.001178 -79.973907 0.001178 340.494171
[Rear_Toe3_03]
95 433.103577 0.001431 -0.000238 -0.039204 88.241417 -0.035707 433.103546
96 433.103577 0.001431 -0.000238 -0.033188 87.904823 -0.029690 433.103546
97 433.103577 0.001431 -0.000238 -0.028837 87.568359 -0.025339 433.103546
[Back_Bone]
95 1312.175781 -701.934692 0.000954 1.509443 0.386722 -95.077660 1488.125488
96 1312.175781 -701.934692 0.000954 1.514764 0.373745 -93.957993 1488.125488
97 1312.175781 -701.934692 0.000954 1.519829 0.360669 -92.838562 1488.125488
[Head]
95 1406.159424 809.709290 0.001431 -0.991059 -0.726881 -3.193803 1622.625488
96 1406.159424 809.709290 0.001431 -0.858965 -0.762874 -1.374081 1622.625488
97 1406.159424 809.709290 0.001431 -0.728146 -0.803022 0.444630 1622.625488
[Motor_Bone]
95 1158.364380 -417.834747 0.000477 -0.177530 0.142380 -116.684464 1231.419434
96 1158.364380 -417.834747 0.000477 -0.169165 0.136655 -115.626747 1231.419434
97 1158.364380 -417.834747 0.000477 -0.160906 0.130776 -114.569008 1231.419434
[Ping_Mechanism]
95 1229.665527 -439.185394 -0.288608 0.000103 -0.000053 82.120995 1305.741699
96 1221.913696 -435.970673 -0.331332 0.000103 -0.000053 82.120995 1297.360229
97 1214.161865 -432.755951 -0.374057 0.000103 -0.000053 82.120995 1288.979004
[BN_LookIK]
95 193.241119 1380.371704 -0.002861 0.000000 89.965736 -31.038179 1393.832153
96 193.241119 1380.371704 -0.002861 0.000000 89.965736 -31.038179 1393.832153
97 193.241119 1380.371704 -0.002861 0.000000 89.965736 -31.038179 1393.832153
[bottomMouth]
95 -435.092926 615.759399 -0.000954 -0.000022 0.000016 73.527184 753.966492
96 -435.092926 615.759399 -0.000954 -0.000022 0.000016 73.527184 753.966492
97 -435.092926 615.759399 -0.000954 -0.000022 0.000016 73.527184 753.966492
[L_Mouth01]
95 554.440979 7.658243 838.222046 150.204178 23.759130 109.605339 1005.027161
96 554.440979 7.658243 838.222046 150.204178 23.759130 109.605339 1005.027161
97 554.440979 7.658243 838.222046 150.204178 23.759130 109.605339 1005.027161
[L_mouthFront]
95 551.629089 934.514771 339.150421 0.000081 2.804060 79.119301 1136.941284
96 551.629089 934.514771 339.150421 0.000081 2.804060 79.119301 1136.941284
97 551.629089 934.514771 339.150421 0.000081 2.804060 79.119301 1136.941284
[mouthGun]
95 55.332661 1627.420898 0.000000 0.000023 0.000009 -11.038128 1628.361328
96 55.332661 1627.420898 0.000000 0.000023 0.000009 -11.038128 1628.361328
97 55.332661 1627.420898 0.000000 0.000023 0.000009 -11.038128 1628.361328
[R_Mouth01]
95 554.442383 7.659197 -838.223938 29.795891 -23.759109 109.605331 1005.029541
96 554.442383 7.659197 -838.223938 29.795891 -23.759109 109.605331 1005.029541
97 554.442383 7.659197 -838.223938 29.795891 -23.759109 109.605331 1005.029541
[R_mouthFront]
95 551.629089 934.514282 -339.151367 0.000029 -2.803930 79.119133 1136.941162
96 551.629089 934.514282 -339.151367 0.000029 -2.803930 79.119133 1136.941162
97 551.629089 934.514282 -339.151367 0.000029 -2.803930 79.119133 1136.941162
[TopMouth]
95 461.269867 -56.106091 -0.008583 -0.000059 -0.000268 92.025169 464.669525
96 461.269867 -56.106091 -0.008583 -0.000059 -0.000268 92.025169 464.669525
97 461.269867 -56.106091 -0.008583 -0.000059 -0.000268 92.025169 464.669525
[weapon_bone]
95 -987.239868 1448.372803 0.001431 0.000000 89.965736 -31.038221 1752.833740
96 -987.239868 1448.372803 0.001431 0.000000 89.965736 -31.038221 1752.833740
97 -987.239868 1448.372803 0.001431 0.000000 89.965736 -31.038221 1752.833740
